<svg id="Layer_1" data-name="Layer 1" xmlns="http://www.w3.org/2000/svg" viewBox="0 0 1000 144.19"><defs><style>.cls-1{fill:#fff;}</style></defs><title>Artboard 1</title><rect class="cls-1" y="122.73" width="36.6" height="22.53"/><rect class="cls-1" y="97.71" width="36.6" height="22.53"/><rect class="cls-1" x="41.71" y="122.73" width="36.6" height="22.53"/><rect class="cls-1" x="41.71" y="97.71" width="36.6" height="22.53"/><rect class="cls-1" x="83.41" y="122.73" width="36.6" height="22.53"/><rect class="cls-1" x="83.41" y="97.71" width="36.6" height="22.53"/><rect class="cls-1" y="72.69" width="36.6" height="22.53"/><rect class="cls-1" x="41.71" y="72.69" width="36.6" height="22.53"/><rect class="cls-1" y="47.66" width="36.6" height="22.53"/><rect class="cls-1" x="41.71" y="47.66" width="36.6" height="22.53"/><rect class="cls-1" x="41.71" y="22.64" width="36.6" height="22.53"/><rect class="cls-1" x="83.41" y="72.69" width="36.6" height="22.53"/><rect class="cls-1" x="125.12" y="122.73" width="36.6" height="22.53"/><rect class="cls-1" x="125.12" y="97.71" width="36.6" height="22.53"/><rect class="cls-1" x="166.82" y="122.73" width="36.6" height="22.53"/><rect class="cls-1" x="166.82" y="97.71" width="36.6" height="22.53"/><rect class="cls-1" x="208.53" y="122.73" width="36.6" height="22.53"/><rect class="cls-1" x="208.53" y="97.71" width="36.6" height="22.53"/><rect class="cls-1" x="166.82" y="72.69" width="36.6" height="22.53"/><rect class="cls-1" x="166.82" y="47.66" width="36.6" height="22.53"/><rect class="cls-1" x="208.53" y="72.69" width="36.6" height="22.53"/><rect class="cls-1" x="250.23" y="122.73" width="36.6" height="22.53"/><rect class="cls-1" x="250.23" y="97.71" width="36.6" height="22.53"/><rect class="cls-1" x="291.94" y="122.73" width="36.6" height="22.53"/><rect class="cls-1" x="291.94" y="97.71" width="36.6" height="22.53"/><rect class="cls-1" x="335.03" y="122.73" width="36.6" height="22.53"/><rect class="cls-1" x="335.03" y="97.71" width="36.6" height="22.53"/><rect class="cls-1" x="376.74" y="122.73" width="36.6" height="22.53"/><rect class="cls-1" x="376.74" y="97.71" width="36.6" height="22.53"/><rect class="cls-1" x="418.45" y="122.73" width="36.6" height="22.53"/><rect class="cls-1" x="418.45" y="97.71" width="36.6" height="22.53"/><rect class="cls-1" x="460.15" y="122.73" width="36.6" height="22.53"/><rect class="cls-1" x="460.15" y="97.71" width="36.6" height="22.53"/><rect class="cls-1" x="291.94" y="72.69" width="36.6" height="22.53"/><rect class="cls-1" x="335.03" y="72.69" width="36.6" height="22.53"/><rect class="cls-1" x="376.74" y="72.69" width="36.6" height="22.53"/><rect class="cls-1" x="418.45" y="72.69" width="36.6" height="22.53"/><rect class="cls-1" x="460.15" y="72.69" width="36.6" height="22.53"/><rect class="cls-1" x="335.03" y="47.66" width="36.6" height="22.53"/><rect class="cls-1" x="376.74" y="47.66" width="36.6" height="22.53"/><rect class="cls-1" x="418.45" y="47.66" width="36.6" height="22.53"/><rect class="cls-1" x="460.15" y="47.66" width="36.6" height="22.53"/><rect class="cls-1" x="376.74" y="22.64" width="36.6" height="22.53"/><rect class="cls-1" x="376.74" y="-2.38" width="36.6" height="22.53"/><rect class="cls-1" x="460.15" y="22.64" width="36.6" height="22.53"/><rect class="cls-1" x="501.86" y="122.73" width="36.6" height="22.53"/><rect class="cls-1" x="501.86" y="97.71" width="36.6" height="22.53"/><rect class="cls-1" x="543.56" y="122.73" width="36.6" height="22.53"/><rect class="cls-1" x="543.56" y="97.71" width="36.6" height="22.53"/><rect class="cls-1" x="585.27" y="122.73" width="36.6" height="22.53"/><rect class="cls-1" x="585.27" y="97.71" width="36.6" height="22.53"/><rect class="cls-1" x="626.97" y="122.73" width="36.6" height="22.53"/><rect class="cls-1" x="626.97" y="97.71" width="36.6" height="22.53"/><rect class="cls-1" x="671.46" y="122.73" width="36.6" height="22.53"/><rect class="cls-1" x="671.46" y="97.71" width="36.6" height="22.53"/><rect class="cls-1" x="713.16" y="122.73" width="36.6" height="22.53"/><rect class="cls-1" x="713.16" y="97.71" width="36.6" height="22.53"/><rect class="cls-1" x="754.87" y="122.73" width="36.6" height="22.53"/><rect class="cls-1" x="754.87" y="97.71" width="36.6" height="22.53"/><rect class="cls-1" x="796.57" y="122.73" width="36.6" height="22.53"/><rect class="cls-1" x="796.57" y="97.71" width="36.6" height="22.53"/><rect class="cls-1" x="838.28" y="122.73" width="36.6" height="22.53"/><rect class="cls-1" x="838.28" y="97.71" width="36.6" height="22.53"/><rect class="cls-1" x="879.99" y="122.73" width="36.6" height="22.53"/><rect class="cls-1" x="879.99" y="97.71" width="36.6" height="22.53"/><rect class="cls-1" x="921.69" y="122.73" width="36.6" height="22.53"/><rect class="cls-1" x="921.69" y="97.71" width="36.6" height="22.53"/><rect class="cls-1" x="963.4" y="122.73" width="36.6" height="22.53"/><rect class="cls-1" x="963.4" y="97.71" width="36.6" height="22.53"/><rect class="cls-1" x="543.56" y="72.69" width="36.6" height="22.53"/><rect class="cls-1" x="585.27" y="72.69" width="36.6" height="22.53"/><rect class="cls-1" x="626.97" y="72.69" width="36.6" height="22.53"/><rect class="cls-1" x="671.46" y="72.69" width="36.6" height="22.53"/><rect class="cls-1" x="713.16" y="72.69" width="36.6" height="22.53"/><rect class="cls-1" x="754.87" y="72.69" width="36.6" height="22.53"/><rect class="cls-1" x="796.57" y="72.69" width="36.6" height="22.53"/><rect class="cls-1" x="838.28" y="72.69" width="36.6" height="22.53"/><rect class="cls-1" x="879.99" y="72.69" width="36.6" height="22.53"/><rect class="cls-1" x="921.69" y="72.69" width="36.6" height="22.53"/><rect class="cls-1" x="963.4" y="72.69" width="36.6" height="22.53"/><rect class="cls-1" x="543.56" y="47.66" width="36.6" height="22.53"/><rect class="cls-1" x="585.27" y="47.66" width="36.6" height="22.53"/><rect class="cls-1" x="671.46" y="47.66" width="36.6" height="22.53"/><rect class="cls-1" x="713.16" y="47.66" width="36.6" height="22.53"/><rect class="cls-1" x="754.87" y="47.66" width="36.6" height="22.53"/><rect class="cls-1" x="796.57" y="47.66" width="36.6" height="22.53"/><rect class="cls-1" x="879.99" y="47.66" width="36.6" height="22.53"/><rect class="cls-1" x="921.69" y="47.66" width="36.6" height="22.53"/><rect class="cls-1" x="963.4" y="47.66" width="36.6" height="22.53"/><rect class="cls-1" x="585.27" y="22.64" width="36.6" height="22.53"/><rect class="cls-1" x="713.16" y="22.64" width="36.6" height="22.53"/><rect class="cls-1" x="754.87" y="22.64" width="36.6" height="22.53"/><rect class="cls-1" x="921.69" y="22.64" width="36.6" height="22.53"/><rect class="cls-1" x="963.4" y="22.64" width="36.6" height="22.53"/><rect class="cls-1" x="585.27" y="-2.38" width="36.6" height="22.53"/><rect class="cls-1" x="713.16" y="-2.38" width="36.6" height="22.53"/><rect class="cls-1" x="963.4" y="-2.38" width="36.6" height="22.53"/></svg>